Coordinates
nRows=273
nColumns=2
inDegrees=yes
endheader
time	ankle_angle_r	
2.59476	  9.368846	
2.62802	  9.405153	
2.66129	  9.423514	
2.69456	  9.425675	
2.72782	  9.429447	
2.76109	  9.441163	
2.79435	  9.449937	
2.82762	  9.451530	
2.86089	  9.453038	
2.89415	  9.459821	
2.92742	  9.472462	
2.96069	  9.486459	
2.99395	  9.494791	
3.02722	  9.494889	
3.06048	  9.488465	
3.09375	  9.480758	
3.12702	  9.481643	
3.16028	  9.495535	
3.19355	  9.513324	
3.22681	  9.523072	
3.26008	  9.520810	
3.29335	  9.510108	
3.32661	  9.498894	
3.35988	  9.492873	
3.39315	  9.491081	
3.42641	  9.492215	
3.45968	  9.496980	
3.49294	  9.500380	
3.52621	  9.495673	
3.55948	  9.486875	
3.59274	  9.482900	
3.62601	  9.480894	
3.65927	  9.470577	
3.69254	  9.454167	
3.72581	  9.441482	
3.75907	  9.431454	
3.79234	  9.422156	
3.8256	  9.420546	
3.85887	  9.426320	
3.89214	  9.430255	
3.9254	  9.428711	
3.95867	  9.421991	
3.99194	  9.411865	
4.0252	  9.405923	
4.05847	  9.408844	
4.09173	  9.415912	
4.125	  9.418977	
4.15827	  9.411022	
4.19153	  9.395205	
4.2248	  9.387250	
4.25806	  9.396050	
4.29133	  9.414141	
4.3246	  9.432253	
4.35786	  9.448150	
4.39113	  9.464586	
4.4244	  9.483763	
4.45766	  9.498392	
4.49093	  9.501339	
4.52419	  9.502436	
4.55746	  9.512550	
4.59073	  9.523859	
4.62399	  9.525353	
4.65726	  9.519058	
4.69052	  9.511264	
4.72379	  9.503818	
4.75706	  9.497516	
4.79032	  9.496233	
4.82359	  9.502796	
4.85685	  9.510947	
4.89012	  9.511371	
4.92339	  9.506389	
4.95665	  9.504757	
4.98992	  9.505758	
5.02319	  9.501775	
5.05645	  9.489121	
5.08972	  9.470005	
5.12298	  9.450483	
5.15625	  9.436309	
5.18952	  9.428349	
5.22278	  9.422996	
5.25605	  9.417194	
5.28931	  9.412799	
5.32258	  9.412058	
5.35585	  9.411458	
5.38911	  9.409691	
5.42238	  9.413222	
5.45565	  9.424271	
5.48891	  9.436088	
5.52218	  9.443012	
5.55544	  9.443248	
5.58871	  9.437604	
5.62198	  9.432312	
5.65524	  9.433656	
5.68851	  9.439829	
5.72177	  9.441477	
5.75504	  9.430683	
5.78831	  9.415312	
5.82157	  9.412816	
5.85484	  9.424140	
5.8881	  9.435730	
5.92137	  9.443596	
5.95464	  9.453387	
5.9879	  9.468499	
6.02117	  9.489701	
6.05444	  9.512451	
6.0877	  9.527566	
6.12097	  9.531663	
6.15423	  9.527210	
6.1875	  9.518543	
6.22077	  9.511648	
6.25403	  9.508529	
6.2873	  9.507616	
6.32056	  9.509371	
6.35383	  9.514303	
6.3871	  9.521024	
6.42036	  9.524547	
6.45363	  9.517285	
6.4869	  9.500270	
6.52016	  9.482991	
6.55343	  9.469766	
6.58669	  9.459366	
6.61996	  9.450989	
6.65323	  9.446113	
6.68649	  9.451656	
6.71976	  9.471802	
6.75302	  9.495155	
6.78629	  9.505263	
6.81956	  9.498294	
6.85282	  9.480841	
6.88609	  9.462365	
6.91935	  9.452580	
6.95262	  9.454061	
6.98589	  9.457473	
7.01915	  9.451368	
7.05242	  9.436629	
7.08569	  9.426329	
7.11895	  9.429878	
7.15222	  9.443641	
7.18548	  9.457172	
7.21875	  9.463928	
7.25202	  9.469306	
7.28528	  9.484745	
7.31855	  9.508478	
7.35181	  9.524796	
7.38508	  9.528288	
7.41835	  9.530238	
7.45161	  9.537312	
7.48488	  9.544448	
7.51815	  9.546391	
7.55141	  9.540750	
7.58468	  9.528892	
7.61794	  9.518905	
7.65121	  9.518655	
7.68448	  9.528567	
7.71774	  9.542881	
7.75101	  9.553880	
7.78427	  9.557311	
7.81754	  9.554258	
7.85081	  9.548382	
7.88407	  9.545619	
7.91734	  9.549905	
7.9506	  9.555505	
7.98387	  9.554829	
8.01714	  9.548729	
8.0504	  9.539513	
8.08367	  9.526566	
8.11694	  9.510897	
8.1502	  9.496795	
8.18347	  9.490618	
8.21673	  9.491281	
8.25	  9.486864	
8.28327	  9.473621	
8.31653	  9.463701	
8.3498	  9.466272	
8.38306	  9.476369	
8.41633	  9.482173	
8.4496	  9.476160	
8.48286	  9.460778	
8.51613	  9.445124	
8.5494	  9.439244	
8.58266	  9.447576	
8.61593	  9.462142	
8.64919	  9.469676	
8.68246	  9.468768	
8.71573	  9.469588	
8.74899	  9.477121	
8.78226	  9.488136	
8.81552	  9.502022	
8.84879	  9.520364	
8.88206	  9.537579	
8.91532	  9.544133	
8.94859	  9.540120	
8.98185	  9.534835	
9.01512	  9.532665	
9.04839	  9.532849	
9.08165	  9.537458	
9.11492	  9.544699	
9.14819	  9.547386	
9.18145	  9.547338	
9.21472	  9.553023	
9.24798	  9.564073	
9.28125	  9.574104	
9.31452	  9.579298	
9.34778	  9.577755	
9.38105	  9.570044	
9.41431	  9.559331	
9.44758	  9.547625	
9.48085	  9.535836	
9.51411	  9.523716	
9.54738	  9.508573	
9.58065	  9.492163	
9.61391	  9.479603	
9.64718	  9.471758	
9.68044	  9.470972	
9.71371	  9.477337	
9.74698	  9.480137	
9.78024	  9.471612	
9.81351	  9.457930	
9.84677	  9.451294	
9.88004	  9.458154	
9.91331	  9.472974	
9.94657	  9.485293	
9.97984	  9.491119	
10.0131	  9.491169	
10.0464	  9.486264	
10.0796	  9.480510	
10.1129	  9.478363	
10.1462	  9.479185	
10.1794	  9.483796	
10.2127	  9.496325	
10.246	  9.516482	
10.2792	  9.540655	
10.3125	  9.562316	
10.3458	  9.570438	
10.379	  9.562930	
10.4123	  9.551910	
10.4456	  9.547915	
10.4788	  9.552041	
10.5121	  9.557876	
10.5454	  9.557578	
10.5786	  9.555096	
10.6119	  9.559393	
10.6452	  9.565412	
10.6784	  9.563516	
10.7117	  9.555960	
10.745	  9.550689	
10.7782	  9.551247	
10.8115	  9.555205	
10.8448	  9.556691	
10.878	  9.551698	
10.9113	  9.541919	
10.9446	  9.531487	
10.9778	  9.521431	
11.0111	  9.510748	
11.0444	  9.500822	
11.0776	  9.495078	
11.1109	  9.492189	
11.1442	  9.485785	
11.1774	  9.474967	
11.2107	  9.462706	
11.244	  9.449961	
11.2772	  9.443298	
11.3105	  9.452126	
11.3437	  9.474531	
11.377	  9.496154	
11.4103	  9.501008	
11.4435	  9.485121	
11.4768	  9.461715	
11.5101	  9.445809	
11.5433	  9.439957	
11.5766	  9.441789	
11.6099	  9.449411	
11.6431	  9.458904	
